<?xml version="1.0" standalone="no"?>
<!DOCTYPE svg PUBLIC "-//W3C//DTD SVG 20010904//EN"
 "http://www.w3.org/TR/2001/REC-SVG-20010904/DTD/svg10.dtd">
<svg version="1.0" xmlns="http://www.w3.org/2000/svg"
 width="1203.000000pt" height="1317.000000pt" viewBox="0 0 1203.000000 1317.000000"
 preserveAspectRatio="xMidYMid meet">

<g transform="translate(0.000000,1317.000000) scale(0.100000,-0.100000)"
fill="#000000" stroke="none">
<path d="M132 13160 c297 -35 580 -199 767 -445 71 -93 155 -267 188 -390 l28
-100 5 -2680 c3 -1474 8 -2675 11 -2670 4 6 26 55 49 110 23 55 76 168 117
250 630 1260 1715 2204 3051 2654 l137 46 -3 1090 c-4 1035 -5 1095 -24 1190
-81 412 -396 767 -798 898 -181 59 -110 57 -1929 56 -916 -1 -1636 -5 -1599
-9z"/>
<path d="M7540 11354 c0 -1725 -1 -1816 -17 -1811 -474 141 -804 201 -1243
228 -568 34 -1224 -49 -1770 -226 -725 -234 -1408 -653 -1950 -1195 -540 -540
-938 -1184 -1180 -1910 -133 -397 -207 -766 -240 -1188 -6 -83 -12 -1108 -17
-2693 l-6 -2559 1686 0 1687 0 3 2558 2 2557 22 90 c46 200 121 374 230 540
88 133 282 327 413 414 617 408 1412 330 1930 -189 173 -172 289 -356 369
-583 52 -147 72 -270 81 -497 10 -229 31 -361 84 -524 189 -574 668 -999 1271
-1126 145 -30 403 -38 555 -16 457 66 848 297 1120 661 163 217 256 433 313
720 l21 110 3 4228 3 4227 -1685 0 -1685 0 0 -1816z"/>
<path d="M7543 2390 c3 -1259 4 -1360 21 -1430 77 -324 252 -583 511 -756 101
-67 226 -126 325 -154 183 -51 143 -50 1920 -49 1442 1 1643 3 1560 15 -250
36 -474 149 -653 330 -135 135 -232 305 -289 501 l-22 78 -6 1410 -5 1410 -46
-65 c-86 -120 -266 -302 -397 -404 -217 -166 -510 -306 -767 -366 -223 -52
-530 -66 -756 -34 -333 46 -662 182 -936 388 -127 95 -304 269 -388 381 -32
44 -63 84 -67 90 -5 5 -7 -600 -5 -1345z"/>
</g>
</svg>
