<?xml version="1.0" standalone="no"?>
<!DOCTYPE svg PUBLIC "-//W3C//DTD SVG 20010904//EN"
 "http://www.w3.org/TR/2001/REC-SVG-20010904/DTD/svg10.dtd">
<svg version="1.0" xmlns="http://www.w3.org/2000/svg"
 width="1723.000000pt" height="538.000000pt" viewBox="0 0 1723.000000 538.000000"
 preserveAspectRatio="xMidYMid meet">

<g transform="translate(0.000000,538.000000) scale(0.100000,-0.100000)"
fill="#000000" stroke="none">
<path d="M85 5368 c132 -25 256 -125 318 -255 l32 -68 5 -1080 5 -1080 56 115
c64 132 134 247 216 358 72 97 255 285 353 365 194 157 453 295 698 372 15 5
17 757 2 874 -24 184 -152 337 -327 391 -63 19 -91 20 -737 19 -456 -1 -655
-4 -621 -11z"/>
<path d="M2980 4660 l0 -719 -42 15 c-24 8 -97 26 -163 39 -420 85 -845 34
-1223 -146 -604 -287 -1013 -858 -1092 -1524 -7 -57 -11 -471 -13 -1125 l-2
-1035 25 -4 c14 -2 314 0 668 4 l642 7 0 1004 c0 685 3 1020 11 1056 6 29 29
91 51 138 32 66 57 101 112 156 80 79 137 114 246 151 87 30 228 36 320 14
140 -33 297 -146 369 -265 65 -108 82 -168 91 -310 14 -217 72 -357 201 -485
111 -110 232 -169 388 -191 290 -40 594 138 702 412 50 127 49 82 49 1864 l0
1664 -670 0 -670 0 0 -720z"/>
<path d="M13180 2060 l0 -180 -45 35 c-82 62 -190 80 -294 49 -69 -20 -146
-94 -158 -150 -4 -22 -8 -250 -8 -509 0 -533 0 -534 77 -599 103 -89 256 -87
376 4 l52 40 0 -45 0 -45 200 0 200 0 0 790 0 790 -200 0 -200 0 0 -180z m-16
-332 c14 -19 16 -76 16 -420 0 -385 -1 -399 -20 -418 -24 -24 -53 -26 -74 -5
-24 24 -28 99 -24 478 3 341 4 359 22 373 29 21 63 17 80 -8z"/>
<path d="M7220 2025 l0 -105 -40 0 -40 0 0 -105 0 -105 40 0 40 0 0 -407 c0
-225 4 -434 10 -467 12 -72 44 -116 107 -147 44 -21 64 -24 226 -27 l177 -4 0
105 0 104 -51 5 c-28 3 -55 12 -60 19 -5 8 -9 195 -9 417 l0 402 50 0 50 0 0
105 0 105 -50 0 -50 0 0 105 0 105 -200 0 -200 0 0 -105z"/>
<path d="M15770 2025 l0 -105 -40 0 -40 0 0 -105 0 -105 40 0 40 0 0 -407 c0
-225 4 -434 10 -467 12 -72 44 -116 107 -147 44 -21 64 -24 226 -27 l177 -4 0
105 0 104 -51 5 c-28 3 -55 12 -60 19 -5 8 -9 195 -9 417 l0 402 50 0 50 0 0
105 0 105 -50 0 -50 0 0 105 0 105 -200 0 -200 0 0 -105z"/>
<path d="M6720 1971 c-50 -16 -87 -40 -123 -80 l-37 -41 0 55 0 55 -200 0
-200 0 0 -650 0 -650 194 0 194 0 4 518 c3 475 4 520 21 545 18 28 49 35 76
18 25 -16 29 -108 30 -603 l1 -478 196 0 195 0 -4 563 c-2 395 -7 572 -15 597
-16 49 -67 107 -115 132 -46 23 -171 34 -217 19z"/>
<path d="M8098 1965 c-124 -31 -212 -96 -254 -189 -40 -89 -46 -159 -42 -507
5 -364 8 -385 76 -474 69 -92 181 -142 338 -152 224 -14 369 58 451 225 26 53
28 68 32 200 l3 142 -186 0 -186 0 0 -122 c0 -68 -5 -140 -10 -160 -17 -58
-70 -77 -106 -37 -17 19 -19 41 -22 210 l-4 189 257 0 257 0 -4 183 c-4 152
-8 193 -26 248 -36 108 -118 187 -241 231 -75 26 -253 34 -333 13z m180 -223
c20 -13 32 -71 32 -159 l0 -83 -61 0 -62 0 5 112 c5 92 9 114 24 125 20 15 43
17 62 5z"/>
<path d="M9387 1966 c-54 -20 -102 -60 -142 -119 l-35 -51 7 82 6 82 -197 0
-196 0 0 -650 0 -650 195 0 195 0 1 268 c1 362 9 484 36 519 30 42 73 62 141
69 l62 7 0 228 c0 256 5 242 -73 215z"/>
<path d="M10470 1971 c-45 -15 -91 -42 -131 -78 l-39 -35 0 51 0 51 -200 0
-200 0 0 -740 0 -740 195 0 195 0 0 146 0 147 44 -41 c60 -55 119 -83 188 -89
106 -10 208 38 248 117 35 68 42 184 38 623 -3 369 -5 416 -21 452 -40 88
-115 137 -221 141 -39 2 -82 0 -96 -5z m-76 -237 c14 -13 16 -66 16 -424 0
-358 -2 -411 -16 -424 -24 -25 -61 -20 -81 11 -16 25 -18 61 -18 419 0 371 1
393 19 413 23 25 58 27 80 5z"/>
<path d="M11497 1966 c-54 -20 -102 -60 -142 -119 l-35 -51 7 82 6 82 -197 0
-196 0 0 -650 0 -650 195 0 195 0 1 268 c1 362 9 484 36 519 30 42 73 62 141
69 l62 7 0 228 c0 256 5 242 -73 215z"/>
<path d="M11960 1969 c-134 -26 -244 -121 -283 -243 -21 -68 -22 -86 -22 -421
0 -307 2 -358 18 -416 49 -178 207 -261 467 -246 162 10 258 53 332 152 70 92
73 113 73 530 l0 370 -27 55 c-57 117 -150 187 -285 215 -75 16 -203 18 -273
4z m181 -236 c11 -13 14 -93 14 -425 0 -394 -1 -410 -19 -424 -41 -29 -74 -13
-86 42 -5 21 -10 194 -10 384 0 341 6 415 32 431 21 14 55 10 69 -8z"/>
<path d="M15047 1964 c-158 -38 -260 -138 -286 -278 -13 -73 -15 -628 -2 -707
30 -179 102 -271 250 -316 80 -25 286 -25 357 0 75 26 138 71 180 128 59 81
75 137 82 282 l5 127 -177 0 -176 0 0 -127 c0 -152 -15 -198 -64 -198 -20 0
-35 9 -50 28 -20 27 -21 41 -24 370 -2 188 -1 366 3 395 9 76 44 102 91 68 17
-13 19 -30 23 -140 l3 -126 184 0 184 0 0 64 c0 91 -25 211 -54 261 -49 82
-160 153 -275 175 -73 14 -184 11 -254 -6z"/>
<path d="M16594 1965 c-131 -28 -220 -100 -246 -198 -7 -29 -13 -103 -13 -167
1 -199 35 -244 311 -404 97 -57 164 -102 171 -117 7 -13 13 -57 13 -96 0 -83
-18 -113 -68 -113 -51 0 -65 28 -70 145 l-5 105 -173 0 -174 0 0 -62 c1 -106
18 -198 49 -252 55 -99 178 -154 361 -163 229 -11 383 67 423 215 35 129 29
289 -13 371 -34 69 -112 125 -317 231 -46 23 -98 59 -118 81 -32 36 -35 44
-35 104 0 72 20 105 63 105 47 0 58 -19 64 -118 l6 -92 175 0 175 0 -7 107
c-4 59 -14 123 -22 143 -20 48 -79 107 -138 137 -99 50 -279 67 -412 38z"/>
<path d="M5102 1408 c6 -624 6 -626 78 -698 101 -101 306 -91 409 19 l33 36
-7 -52 -7 -53 201 0 201 0 0 650 0 650 -195 0 -194 0 -3 -528 c-3 -575 -2
-562 -59 -562 -60 0 -59 -8 -59 567 l0 523 -201 0 -201 0 4 -552z"/>
<path d="M13712 1408 c6 -624 6 -626 78 -698 101 -101 306 -91 409 19 l33 36
-7 -52 -7 -53 201 0 201 0 0 650 0 650 -195 0 -194 0 -3 -528 c-3 -575 -2
-562 -59 -562 -60 0 -59 -8 -59 567 l0 523 -201 0 -201 0 4 -552z"/>
<path d="M2980 1128 c0 -568 3 -600 62 -710 46 -87 121 -158 214 -205 l78 -38
685 -2 c611 -2 680 0 633 12 -149 41 -262 147 -311 293 -20 59 -21 81 -21 614
l0 553 -66 -73 c-105 -116 -231 -195 -384 -244 -64 -20 -96 -23 -215 -23 -165
0 -227 14 -360 79 -102 51 -203 130 -261 204 -21 28 -42 51 -46 52 -5 0 -8
-231 -8 -512z"/>
</g>
</svg>
